<svg id="Layer_1" data-name="Layer 1" xmlns="http://www.w3.org/2000/svg" viewBox="0 0 1000 500"><defs><style>.cls-1{font-size:71.28px;font-family:MinecrafterAlt, Minecrafter Alt;}.cls-1,.cls-2,.cls-7{fill:#005ac9;}.cls-2{font-size:432.53px;font-family:Waltograph, Waltograph;letter-spacing:-0.01em;}.cls-3{letter-spacing:-0.01em;}.cls-4{letter-spacing:0em;}.cls-5{letter-spacing:-0.03em;}.cls-6{letter-spacing:0em;}</style></defs><title>Artboard 1</title><text class="cls-1" transform="translate(552 170.58) scale(1.03 1)">Minecraft</text><text></text><text class="cls-2" transform="translate(46.86 373.71) scale(0.94 1)">D<tspan class="cls-3" x="375.01" y="0">i</tspan><tspan class="cls-4" x="443.78" y="0">sn</tspan><tspan class="cls-5" x="741.78" y="0">e</tspan><tspan class="cls-6" x="860.29" y="0">y</tspan></text><path class="cls-7" d="M92.18,424.2H109.9c10.08,0,18.72,3.45,18.72,15.12,0,11.3-8.64,16-18.72,16h-5.33V471H92.18ZM109,445.51c4.9,0,7.49-2.16,7.49-6.19S113.93,434,109,434h-4.46v11.52Zm-1.36,6.55,8.35-8.21L131.21,471H117.39Z"/><path class="cls-7" d="M151.94,424.2h30.25v10.36H164.33v7.35h15.26v10.37H164.33v8.35h18.58V471h-31Z"/><path class="cls-7" d="M203.5,465.17l7.05-8.5c3.31,2.66,7.49,4.54,10.95,4.54,3.74,0,5.33-1.23,5.33-3.32s-2.38-2.95-6.34-4.53l-5.83-2.45c-5-2-9.44-6.26-9.44-13,0-8,7.2-14.55,17.43-14.55a22.49,22.49,0,0,1,15.55,6.27L232,437.37c-3.17-2.23-5.9-3.38-9.36-3.38-3,0-4.9,1.08-4.9,3.17s2.67,3,6.92,4.68l5.68,2.23c5.84,2.3,9.15,6.34,9.15,12.82,0,7.92-6.63,15-18.29,15A27.11,27.11,0,0,1,203.5,465.17Z"/><path class="cls-7" d="M259.37,447.38c0-15.41,8.78-24.05,21.74-24.05s21.75,8.71,21.75,24.05-8.79,24.48-21.75,24.48S259.37,462.79,259.37,447.38Zm30.82,0c0-8.5-3.46-13.39-9.08-13.39S272,438.88,272,447.38s3.46,13.83,9.07,13.83S290.19,455.88,290.19,447.38Z"/><path class="cls-7" d="M325.61,424.2h17.71c10.08,0,18.72,3.45,18.72,15.12,0,11.3-8.64,16-18.72,16H338V471H325.61Zm16.85,21.31c4.89,0,7.48-2.16,7.48-6.19s-2.59-5.33-7.48-5.33H338v11.52Zm-1.37,6.55,8.35-8.21L364.63,471H350.81Z"/><path class="cls-7" d="M392.86,434.56H380.47V424.2h37.16v10.36H405.24V471H392.86Z"/></svg>